<mxfile host="app.diagrams.net" modified="2023-09-28T03:01:43.354Z" agent="Mozilla/5.0 (Windows NT 10.0; Win64; x64) AppleWebKit/537.36 (KHTML, like Gecko) Chrome/117.0.0.0 Safari/537.36" etag="bqh3HN9sSfz_uNGn1zdj" version="21.8.0" type="device">
  <diagram name="Page-1" id="MppusrqFC6pN8X1Cddnk">
    <mxGraphModel dx="794" dy="502" grid="1" gridSize="10" guides="1" tooltips="1" connect="1" arrows="1" fold="1" page="1" pageScale="1" pageWidth="850" pageHeight="1100" math="0" shadow="0">
      <root>
        <mxCell id="0" />
        <mxCell id="1" parent="0" />
        <mxCell id="sRqPSV8gsJpdZPFquNzM-7" style="edgeStyle=orthogonalEdgeStyle;rounded=0;orthogonalLoop=1;jettySize=auto;html=1;exitX=1;exitY=0.5;exitDx=0;exitDy=0;entryX=0;entryY=0.5;entryDx=0;entryDy=0;" edge="1" parent="1" source="sRqPSV8gsJpdZPFquNzM-1" target="sRqPSV8gsJpdZPFquNzM-2">
          <mxGeometry relative="1" as="geometry" />
        </mxCell>
        <mxCell id="sRqPSV8gsJpdZPFquNzM-8" style="edgeStyle=orthogonalEdgeStyle;rounded=0;orthogonalLoop=1;jettySize=auto;html=1;exitX=1;exitY=0.5;exitDx=0;exitDy=0;entryX=0;entryY=0.5;entryDx=0;entryDy=0;" edge="1" parent="1" source="sRqPSV8gsJpdZPFquNzM-1" target="sRqPSV8gsJpdZPFquNzM-3">
          <mxGeometry relative="1" as="geometry" />
        </mxCell>
        <mxCell id="sRqPSV8gsJpdZPFquNzM-9" style="edgeStyle=orthogonalEdgeStyle;rounded=0;orthogonalLoop=1;jettySize=auto;html=1;exitX=1;exitY=0.5;exitDx=0;exitDy=0;entryX=0;entryY=0.5;entryDx=0;entryDy=0;" edge="1" parent="1" source="sRqPSV8gsJpdZPFquNzM-1" target="sRqPSV8gsJpdZPFquNzM-4">
          <mxGeometry relative="1" as="geometry" />
        </mxCell>
        <mxCell id="sRqPSV8gsJpdZPFquNzM-28" style="edgeStyle=orthogonalEdgeStyle;rounded=0;orthogonalLoop=1;jettySize=auto;html=1;exitX=1;exitY=0.5;exitDx=0;exitDy=0;entryX=0;entryY=0.5;entryDx=0;entryDy=0;" edge="1" parent="1" source="sRqPSV8gsJpdZPFquNzM-1" target="sRqPSV8gsJpdZPFquNzM-27">
          <mxGeometry relative="1" as="geometry" />
        </mxCell>
        <mxCell id="sRqPSV8gsJpdZPFquNzM-1" value="UI &amp;lt;Landing Page&amp;gt;" style="rounded=0;whiteSpace=wrap;html=1;" vertex="1" parent="1">
          <mxGeometry x="40" y="160" width="120" height="60" as="geometry" />
        </mxCell>
        <mxCell id="sRqPSV8gsJpdZPFquNzM-19" style="edgeStyle=orthogonalEdgeStyle;rounded=0;orthogonalLoop=1;jettySize=auto;html=1;exitX=1;exitY=0.5;exitDx=0;exitDy=0;entryX=0;entryY=0.5;entryDx=0;entryDy=0;" edge="1" parent="1" source="sRqPSV8gsJpdZPFquNzM-2" target="sRqPSV8gsJpdZPFquNzM-18">
          <mxGeometry relative="1" as="geometry">
            <Array as="points">
              <mxPoint x="540" y="70" />
              <mxPoint x="540" y="120" />
            </Array>
          </mxGeometry>
        </mxCell>
        <mxCell id="sRqPSV8gsJpdZPFquNzM-2" value="&amp;lt;Choose device page&amp;gt;" style="rounded=0;whiteSpace=wrap;html=1;" vertex="1" parent="1">
          <mxGeometry x="200" y="40" width="200" height="60" as="geometry" />
        </mxCell>
        <mxCell id="sRqPSV8gsJpdZPFquNzM-3" value="&amp;lt;Login&amp;gt;" style="rounded=0;whiteSpace=wrap;html=1;" vertex="1" parent="1">
          <mxGeometry x="240" y="160" width="120" height="60" as="geometry" />
        </mxCell>
        <mxCell id="sRqPSV8gsJpdZPFquNzM-4" value="&amp;lt;Cart&amp;gt;" style="rounded=0;whiteSpace=wrap;html=1;" vertex="1" parent="1">
          <mxGeometry x="240" y="280" width="120" height="60" as="geometry" />
        </mxCell>
        <mxCell id="sRqPSV8gsJpdZPFquNzM-10" style="edgeStyle=orthogonalEdgeStyle;rounded=0;orthogonalLoop=1;jettySize=auto;html=1;exitX=0;exitY=0;exitDx=0;exitDy=27.5;exitPerimeter=0;entryX=0.75;entryY=1;entryDx=0;entryDy=0;startArrow=classic;startFill=1;" edge="1" parent="1" source="sRqPSV8gsJpdZPFquNzM-6" target="sRqPSV8gsJpdZPFquNzM-2">
          <mxGeometry relative="1" as="geometry" />
        </mxCell>
        <mxCell id="sRqPSV8gsJpdZPFquNzM-29" style="edgeStyle=orthogonalEdgeStyle;rounded=0;orthogonalLoop=1;jettySize=auto;html=1;exitX=1;exitY=0.5;exitDx=0;exitDy=0;exitPerimeter=0;entryX=0;entryY=0.5;entryDx=0;entryDy=0;startArrow=classic;startFill=1;" edge="1" parent="1" source="sRqPSV8gsJpdZPFquNzM-6" target="sRqPSV8gsJpdZPFquNzM-18">
          <mxGeometry relative="1" as="geometry" />
        </mxCell>
        <mxCell id="sRqPSV8gsJpdZPFquNzM-6" value="Product DB" style="shape=cylinder3;whiteSpace=wrap;html=1;boundedLbl=1;backgroundOutline=1;size=15;" vertex="1" parent="1">
          <mxGeometry x="460" y="120" width="60" height="80" as="geometry" />
        </mxCell>
        <mxCell id="sRqPSV8gsJpdZPFquNzM-12" style="edgeStyle=orthogonalEdgeStyle;rounded=0;orthogonalLoop=1;jettySize=auto;html=1;exitX=0;exitY=0.5;exitDx=0;exitDy=0;exitPerimeter=0;entryX=1;entryY=0.5;entryDx=0;entryDy=0;startArrow=classic;startFill=1;" edge="1" parent="1" source="sRqPSV8gsJpdZPFquNzM-11" target="sRqPSV8gsJpdZPFquNzM-3">
          <mxGeometry relative="1" as="geometry" />
        </mxCell>
        <mxCell id="sRqPSV8gsJpdZPFquNzM-11" value="User DB" style="shape=cylinder3;whiteSpace=wrap;html=1;boundedLbl=1;backgroundOutline=1;size=15;" vertex="1" parent="1">
          <mxGeometry x="460" y="230" width="60" height="80" as="geometry" />
        </mxCell>
        <mxCell id="sRqPSV8gsJpdZPFquNzM-14" style="edgeStyle=orthogonalEdgeStyle;rounded=0;orthogonalLoop=1;jettySize=auto;html=1;exitX=0;exitY=0.5;exitDx=0;exitDy=0;exitPerimeter=0;entryX=1;entryY=0.5;entryDx=0;entryDy=0;startArrow=classic;startFill=1;" edge="1" parent="1" source="sRqPSV8gsJpdZPFquNzM-13" target="sRqPSV8gsJpdZPFquNzM-4">
          <mxGeometry relative="1" as="geometry" />
        </mxCell>
        <mxCell id="sRqPSV8gsJpdZPFquNzM-13" value="Cart DB" style="shape=cylinder3;whiteSpace=wrap;html=1;boundedLbl=1;backgroundOutline=1;size=15;" vertex="1" parent="1">
          <mxGeometry x="460" y="340" width="60" height="80" as="geometry" />
        </mxCell>
        <mxCell id="sRqPSV8gsJpdZPFquNzM-21" style="edgeStyle=orthogonalEdgeStyle;rounded=0;orthogonalLoop=1;jettySize=auto;html=1;exitX=0.5;exitY=1;exitDx=0;exitDy=0;" edge="1" parent="1" source="sRqPSV8gsJpdZPFquNzM-18" target="sRqPSV8gsJpdZPFquNzM-20">
          <mxGeometry relative="1" as="geometry" />
        </mxCell>
        <mxCell id="sRqPSV8gsJpdZPFquNzM-18" value="&amp;lt;Customization&amp;gt;&lt;br&gt;&lt;br&gt;- designs&lt;br&gt;- textures&lt;br&gt;- slim/bulky&lt;br&gt;- user imported design" style="whiteSpace=wrap;html=1;aspect=fixed;" vertex="1" parent="1">
          <mxGeometry x="560" y="40" width="160" height="160" as="geometry" />
        </mxCell>
        <mxCell id="sRqPSV8gsJpdZPFquNzM-23" style="edgeStyle=orthogonalEdgeStyle;rounded=0;orthogonalLoop=1;jettySize=auto;html=1;exitX=0.5;exitY=1;exitDx=0;exitDy=0;" edge="1" parent="1" source="sRqPSV8gsJpdZPFquNzM-20" target="sRqPSV8gsJpdZPFquNzM-22">
          <mxGeometry relative="1" as="geometry" />
        </mxCell>
        <mxCell id="sRqPSV8gsJpdZPFquNzM-20" value="&amp;lt;Shipping&amp;gt;" style="rounded=0;whiteSpace=wrap;html=1;" vertex="1" parent="1">
          <mxGeometry x="580" y="250" width="120" height="60" as="geometry" />
        </mxCell>
        <mxCell id="sRqPSV8gsJpdZPFquNzM-25" style="edgeStyle=orthogonalEdgeStyle;rounded=0;orthogonalLoop=1;jettySize=auto;html=1;exitX=0.5;exitY=1;exitDx=0;exitDy=0;entryX=0.5;entryY=0;entryDx=0;entryDy=0;" edge="1" parent="1" source="sRqPSV8gsJpdZPFquNzM-22" target="sRqPSV8gsJpdZPFquNzM-24">
          <mxGeometry relative="1" as="geometry" />
        </mxCell>
        <mxCell id="sRqPSV8gsJpdZPFquNzM-22" value="&amp;lt;Payment&amp;gt;" style="rounded=0;whiteSpace=wrap;html=1;" vertex="1" parent="1">
          <mxGeometry x="580" y="360" width="120" height="60" as="geometry" />
        </mxCell>
        <mxCell id="sRqPSV8gsJpdZPFquNzM-24" value="&amp;lt;Confirmation&amp;gt;" style="rounded=0;whiteSpace=wrap;html=1;" vertex="1" parent="1">
          <mxGeometry x="580" y="470" width="120" height="60" as="geometry" />
        </mxCell>
        <mxCell id="sRqPSV8gsJpdZPFquNzM-27" value="&amp;lt;Search Results&amp;gt;" style="rounded=0;whiteSpace=wrap;html=1;" vertex="1" parent="1">
          <mxGeometry x="240" y="400" width="120" height="60" as="geometry" />
        </mxCell>
        <mxCell id="sRqPSV8gsJpdZPFquNzM-32" value="Payment DB" style="shape=cylinder3;whiteSpace=wrap;html=1;boundedLbl=1;backgroundOutline=1;size=15;" vertex="1" parent="1">
          <mxGeometry x="770" y="240" width="60" height="80" as="geometry" />
        </mxCell>
        <mxCell id="sRqPSV8gsJpdZPFquNzM-33" style="edgeStyle=orthogonalEdgeStyle;rounded=0;orthogonalLoop=1;jettySize=auto;html=1;exitX=1;exitY=0.5;exitDx=0;exitDy=0;entryX=0.5;entryY=1;entryDx=0;entryDy=0;entryPerimeter=0;startArrow=classic;startFill=1;" edge="1" parent="1" source="sRqPSV8gsJpdZPFquNzM-22" target="sRqPSV8gsJpdZPFquNzM-32">
          <mxGeometry relative="1" as="geometry" />
        </mxCell>
        <mxCell id="sRqPSV8gsJpdZPFquNzM-34" style="edgeStyle=orthogonalEdgeStyle;rounded=0;orthogonalLoop=1;jettySize=auto;html=1;exitX=1;exitY=0.5;exitDx=0;exitDy=0;entryX=0;entryY=0.5;entryDx=0;entryDy=0;entryPerimeter=0;startArrow=classic;startFill=1;" edge="1" parent="1" source="sRqPSV8gsJpdZPFquNzM-20" target="sRqPSV8gsJpdZPFquNzM-32">
          <mxGeometry relative="1" as="geometry" />
        </mxCell>
      </root>
    </mxGraphModel>
  </diagram>
</mxfile>
